<mxfile host="app.diagrams.net" modified="2021-03-19T12:05:41.632Z" agent="5.0 (Windows NT 6.1; Win64; x64) AppleWebKit/537.36 (KHTML, like Gecko) Chrome/88.0.4324.192 Safari/537.36 OPR/74.0.3911.218 (Edition Yx 05)" etag="--OowIXPZDU9XUq1la7x" version="14.4.9" type="github">
  <diagram id="C5RBs43oDa-KdzZeNtuy" name="les_2_task_1">
    <mxGraphModel dx="1102" dy="747" grid="1" gridSize="10" guides="1" tooltips="1" connect="1" arrows="1" fold="1" page="1" pageScale="1" pageWidth="827" pageHeight="1169" math="0" shadow="0">
      <root>
        <mxCell id="WIyWlLk6GJQsqaUBKTNV-0" />
        <mxCell id="WIyWlLk6GJQsqaUBKTNV-1" parent="WIyWlLk6GJQsqaUBKTNV-0" />
        <mxCell id="oukyk6c_DSoq8OUK_arh-26" style="edgeStyle=orthogonalEdgeStyle;rounded=0;orthogonalLoop=1;jettySize=auto;html=1;exitX=0.5;exitY=1;exitDx=0;exitDy=0;entryX=0.5;entryY=0;entryDx=0;entryDy=0;" edge="1" parent="WIyWlLk6GJQsqaUBKTNV-1" source="oukyk6c_DSoq8OUK_arh-0" target="oukyk6c_DSoq8OUK_arh-25">
          <mxGeometry relative="1" as="geometry" />
        </mxCell>
        <mxCell id="oukyk6c_DSoq8OUK_arh-0" value="&lt;h2&gt;&lt;p class=&quot;MsoNormal&quot;&gt;&lt;font style=&quot;font-size: 12px ; font-weight: normal&quot;&gt;Начало&lt;/font&gt;&lt;/p&gt;&lt;/h2&gt;" style="ellipse;whiteSpace=wrap;html=1;" vertex="1" parent="WIyWlLk6GJQsqaUBKTNV-1">
          <mxGeometry x="399.5" y="40" width="80" height="40" as="geometry" />
        </mxCell>
        <mxCell id="oukyk6c_DSoq8OUK_arh-23" style="edgeStyle=orthogonalEdgeStyle;rounded=0;orthogonalLoop=1;jettySize=auto;html=1;exitX=0.5;exitY=1;exitDx=0;exitDy=0;entryX=0.536;entryY=0.01;entryDx=0;entryDy=0;entryPerimeter=0;" edge="1" parent="WIyWlLk6GJQsqaUBKTNV-1" source="oukyk6c_DSoq8OUK_arh-19" target="oukyk6c_DSoq8OUK_arh-21">
          <mxGeometry relative="1" as="geometry" />
        </mxCell>
        <mxCell id="oukyk6c_DSoq8OUK_arh-19" value="while True:" style="shape=hexagon;perimeter=hexagonPerimeter2;whiteSpace=wrap;html=1;fixedSize=1;" vertex="1" parent="WIyWlLk6GJQsqaUBKTNV-1">
          <mxGeometry x="398.5" y="200" width="81" height="40" as="geometry" />
        </mxCell>
        <mxCell id="oukyk6c_DSoq8OUK_arh-29" style="edgeStyle=orthogonalEdgeStyle;rounded=0;orthogonalLoop=1;jettySize=auto;html=1;entryX=0.5;entryY=0;entryDx=0;entryDy=0;" edge="1" parent="WIyWlLk6GJQsqaUBKTNV-1" source="oukyk6c_DSoq8OUK_arh-20" target="oukyk6c_DSoq8OUK_arh-28">
          <mxGeometry relative="1" as="geometry" />
        </mxCell>
        <mxCell id="oukyk6c_DSoq8OUK_arh-20" value="&lt;div style=&quot;font-family: &amp;#34;consolas&amp;#34; , &amp;#34;courier new&amp;#34; , monospace ; line-height: 19px&quot;&gt;&lt;font style=&quot;font-size: 12px&quot;&gt;&amp;nbsp;number2&lt;/font&gt;&lt;/div&gt;" style="shape=parallelogram;perimeter=parallelogramPerimeter;whiteSpace=wrap;html=1;fixedSize=1;" vertex="1" parent="WIyWlLk6GJQsqaUBKTNV-1">
          <mxGeometry x="398.5" y="360.0000000000001" width="80" height="40" as="geometry" />
        </mxCell>
        <mxCell id="oukyk6c_DSoq8OUK_arh-24" style="edgeStyle=orthogonalEdgeStyle;rounded=0;orthogonalLoop=1;jettySize=auto;html=1;exitX=0.5;exitY=1;exitDx=0;exitDy=0;" edge="1" parent="WIyWlLk6GJQsqaUBKTNV-1" source="oukyk6c_DSoq8OUK_arh-21">
          <mxGeometry relative="1" as="geometry">
            <mxPoint x="436.3953488372093" y="360" as="targetPoint" />
          </mxGeometry>
        </mxCell>
        <mxCell id="oukyk6c_DSoq8OUK_arh-21" value="&lt;div style=&quot;font-family: &amp;#34;consolas&amp;#34; , &amp;#34;courier new&amp;#34; , monospace ; line-height: 19px&quot;&gt;&lt;font style=&quot;font-size: 12px&quot;&gt;&amp;nbsp;number1&lt;/font&gt;&lt;/div&gt;" style="shape=parallelogram;perimeter=parallelogramPerimeter;whiteSpace=wrap;html=1;fixedSize=1;" vertex="1" parent="WIyWlLk6GJQsqaUBKTNV-1">
          <mxGeometry x="396.5" y="280.0000000000001" width="80" height="40" as="geometry" />
        </mxCell>
        <mxCell id="oukyk6c_DSoq8OUK_arh-27" style="edgeStyle=orthogonalEdgeStyle;rounded=0;orthogonalLoop=1;jettySize=auto;html=1;entryX=0.5;entryY=0;entryDx=0;entryDy=0;" edge="1" parent="WIyWlLk6GJQsqaUBKTNV-1" source="oukyk6c_DSoq8OUK_arh-25" target="oukyk6c_DSoq8OUK_arh-19">
          <mxGeometry relative="1" as="geometry" />
        </mxCell>
        <mxCell id="oukyk6c_DSoq8OUK_arh-25" value="list_effect=[]" style="rounded=0;whiteSpace=wrap;html=1;" vertex="1" parent="WIyWlLk6GJQsqaUBKTNV-1">
          <mxGeometry x="399.5" y="120.00000000000011" width="80" height="40" as="geometry" />
        </mxCell>
        <mxCell id="oukyk6c_DSoq8OUK_arh-33" style="edgeStyle=orthogonalEdgeStyle;rounded=0;orthogonalLoop=1;jettySize=auto;html=1;exitX=0.5;exitY=1;exitDx=0;exitDy=0;entryX=0.5;entryY=0;entryDx=0;entryDy=0;" edge="1" parent="WIyWlLk6GJQsqaUBKTNV-1" source="oukyk6c_DSoq8OUK_arh-28" target="oukyk6c_DSoq8OUK_arh-30">
          <mxGeometry relative="1" as="geometry" />
        </mxCell>
        <mxCell id="oukyk6c_DSoq8OUK_arh-28" value="&lt;div style=&quot;font-family: &amp;#34;consolas&amp;#34; , &amp;#34;courier new&amp;#34; , monospace ; line-height: 19px&quot;&gt;&lt;font style=&quot;font-size: 12px&quot;&gt;effect&lt;/font&gt;&lt;/div&gt;" style="shape=parallelogram;perimeter=parallelogramPerimeter;whiteSpace=wrap;html=1;fixedSize=1;" vertex="1" parent="WIyWlLk6GJQsqaUBKTNV-1">
          <mxGeometry x="399.5" y="440" width="80" height="40" as="geometry" />
        </mxCell>
        <mxCell id="oukyk6c_DSoq8OUK_arh-34" value="Yes" style="edgeStyle=orthogonalEdgeStyle;rounded=0;orthogonalLoop=1;jettySize=auto;html=1;exitX=1;exitY=0.5;exitDx=0;exitDy=0;entryX=0.5;entryY=0;entryDx=0;entryDy=0;" edge="1" parent="WIyWlLk6GJQsqaUBKTNV-1" source="oukyk6c_DSoq8OUK_arh-30" target="oukyk6c_DSoq8OUK_arh-31">
          <mxGeometry relative="1" as="geometry" />
        </mxCell>
        <mxCell id="oukyk6c_DSoq8OUK_arh-38" value="No" style="edgeStyle=orthogonalEdgeStyle;rounded=0;orthogonalLoop=1;jettySize=auto;html=1;entryX=0.5;entryY=0;entryDx=0;entryDy=0;" edge="1" parent="WIyWlLk6GJQsqaUBKTNV-1" source="oukyk6c_DSoq8OUK_arh-30" target="oukyk6c_DSoq8OUK_arh-36">
          <mxGeometry relative="1" as="geometry" />
        </mxCell>
        <mxCell id="oukyk6c_DSoq8OUK_arh-30" value="if&amp;nbsp; effect in list_effect" style="rhombus;whiteSpace=wrap;html=1;" vertex="1" parent="WIyWlLk6GJQsqaUBKTNV-1">
          <mxGeometry x="399.5" y="520.0000000000001" width="80" height="80" as="geometry" />
        </mxCell>
        <mxCell id="oukyk6c_DSoq8OUK_arh-35" value="Yes" style="edgeStyle=orthogonalEdgeStyle;rounded=0;orthogonalLoop=1;jettySize=auto;html=1;exitX=0;exitY=0.5;exitDx=0;exitDy=0;entryX=0.5;entryY=0;entryDx=0;entryDy=0;" edge="1" parent="WIyWlLk6GJQsqaUBKTNV-1" source="oukyk6c_DSoq8OUK_arh-31" target="oukyk6c_DSoq8OUK_arh-32">
          <mxGeometry relative="1" as="geometry" />
        </mxCell>
        <mxCell id="oukyk6c_DSoq8OUK_arh-44" style="edgeStyle=orthogonalEdgeStyle;rounded=0;orthogonalLoop=1;jettySize=auto;html=1;exitX=0.5;exitY=1;exitDx=0;exitDy=0;entryX=0.5;entryY=0;entryDx=0;entryDy=0;" edge="1" parent="WIyWlLk6GJQsqaUBKTNV-1" source="oukyk6c_DSoq8OUK_arh-31" target="oukyk6c_DSoq8OUK_arh-39">
          <mxGeometry relative="1" as="geometry" />
        </mxCell>
        <mxCell id="oukyk6c_DSoq8OUK_arh-31" value="if &#39;0&#39; ==&amp;nbsp; effec" style="rhombus;whiteSpace=wrap;html=1;" vertex="1" parent="WIyWlLk6GJQsqaUBKTNV-1">
          <mxGeometry x="520" y="600" width="80" height="80" as="geometry" />
        </mxCell>
        <mxCell id="oukyk6c_DSoq8OUK_arh-32" value="&lt;h2&gt;&lt;p class=&quot;MsoNormal&quot;&gt;&lt;font style=&quot;font-size: 12px ; font-weight: normal&quot;&gt;Конец&lt;/font&gt;&lt;/p&gt;&lt;/h2&gt;" style="ellipse;whiteSpace=wrap;html=1;" vertex="1" parent="WIyWlLk6GJQsqaUBKTNV-1">
          <mxGeometry x="440" y="680" width="80" height="40" as="geometry" />
        </mxCell>
        <mxCell id="oukyk6c_DSoq8OUK_arh-61" style="edgeStyle=orthogonalEdgeStyle;rounded=0;orthogonalLoop=1;jettySize=auto;html=1;" edge="1" parent="WIyWlLk6GJQsqaUBKTNV-1" source="oukyk6c_DSoq8OUK_arh-36">
          <mxGeometry relative="1" as="geometry">
            <mxPoint x="230" y="680" as="targetPoint" />
            <Array as="points">
              <mxPoint x="360" y="680" />
              <mxPoint x="280" y="680" />
            </Array>
          </mxGeometry>
        </mxCell>
        <mxCell id="oukyk6c_DSoq8OUK_arh-36" value="&lt;div style=&quot;font-family: &amp;#34;consolas&amp;#34; , &amp;#34;courier new&amp;#34; , monospace ; line-height: 19px&quot;&gt;&lt;font style=&quot;font-size: 12px&quot;&gt;Ошибка&lt;/font&gt;&lt;/div&gt;" style="shape=parallelogram;perimeter=parallelogramPerimeter;whiteSpace=wrap;html=1;fixedSize=1;" vertex="1" parent="WIyWlLk6GJQsqaUBKTNV-1">
          <mxGeometry x="316.5" y="600.0000000000001" width="80" height="40" as="geometry" />
        </mxCell>
        <mxCell id="oukyk6c_DSoq8OUK_arh-45" style="edgeStyle=orthogonalEdgeStyle;rounded=0;orthogonalLoop=1;jettySize=auto;html=1;exitX=0.5;exitY=1;exitDx=0;exitDy=0;" edge="1" parent="WIyWlLk6GJQsqaUBKTNV-1" source="oukyk6c_DSoq8OUK_arh-39" target="oukyk6c_DSoq8OUK_arh-40">
          <mxGeometry relative="1" as="geometry" />
        </mxCell>
        <mxCell id="oukyk6c_DSoq8OUK_arh-47" value="Yes" style="edgeStyle=orthogonalEdgeStyle;rounded=0;orthogonalLoop=1;jettySize=auto;html=1;entryX=0.5;entryY=0;entryDx=0;entryDy=0;" edge="1" parent="WIyWlLk6GJQsqaUBKTNV-1" source="oukyk6c_DSoq8OUK_arh-39" target="oukyk6c_DSoq8OUK_arh-43">
          <mxGeometry relative="1" as="geometry">
            <mxPoint x="440.0000000000001" y="760" as="targetPoint" />
            <Array as="points">
              <mxPoint x="440" y="760" />
            </Array>
          </mxGeometry>
        </mxCell>
        <mxCell id="oukyk6c_DSoq8OUK_arh-39" value="if effect ==&amp;nbsp; &#39;+&#39;" style="rhombus;whiteSpace=wrap;html=1;" vertex="1" parent="WIyWlLk6GJQsqaUBKTNV-1">
          <mxGeometry x="520" y="720" width="80" height="80" as="geometry" />
        </mxCell>
        <mxCell id="oukyk6c_DSoq8OUK_arh-53" style="edgeStyle=orthogonalEdgeStyle;rounded=0;orthogonalLoop=1;jettySize=auto;html=1;exitX=0.5;exitY=1;exitDx=0;exitDy=0;entryX=0.5;entryY=0;entryDx=0;entryDy=0;" edge="1" parent="WIyWlLk6GJQsqaUBKTNV-1" source="oukyk6c_DSoq8OUK_arh-40" target="oukyk6c_DSoq8OUK_arh-41">
          <mxGeometry relative="1" as="geometry" />
        </mxCell>
        <mxCell id="oukyk6c_DSoq8OUK_arh-40" value="if effect ==&amp;nbsp; &#39;-&#39;" style="rhombus;whiteSpace=wrap;html=1;" vertex="1" parent="WIyWlLk6GJQsqaUBKTNV-1">
          <mxGeometry x="520" y="840" width="80" height="80" as="geometry" />
        </mxCell>
        <mxCell id="oukyk6c_DSoq8OUK_arh-54" style="edgeStyle=orthogonalEdgeStyle;rounded=0;orthogonalLoop=1;jettySize=auto;html=1;exitX=0.5;exitY=1;exitDx=0;exitDy=0;entryX=0.5;entryY=0;entryDx=0;entryDy=0;" edge="1" parent="WIyWlLk6GJQsqaUBKTNV-1" source="oukyk6c_DSoq8OUK_arh-41" target="oukyk6c_DSoq8OUK_arh-42">
          <mxGeometry relative="1" as="geometry" />
        </mxCell>
        <mxCell id="oukyk6c_DSoq8OUK_arh-41" value="if effect ==&amp;nbsp; &#39;*&#39;" style="rhombus;whiteSpace=wrap;html=1;" vertex="1" parent="WIyWlLk6GJQsqaUBKTNV-1">
          <mxGeometry x="520" y="960" width="80" height="80" as="geometry" />
        </mxCell>
        <mxCell id="oukyk6c_DSoq8OUK_arh-42" value="if effect ==&amp;nbsp; &#39;/&#39;" style="rhombus;whiteSpace=wrap;html=1;" vertex="1" parent="WIyWlLk6GJQsqaUBKTNV-1">
          <mxGeometry x="520" y="1080" width="80" height="80" as="geometry" />
        </mxCell>
        <mxCell id="oukyk6c_DSoq8OUK_arh-43" value="&lt;div style=&quot;font-family: &amp;#34;consolas&amp;#34; , &amp;#34;courier new&amp;#34; , monospace ; line-height: 19px&quot;&gt;&lt;font style=&quot;font-size: 12px&quot;&gt;number1+number2&lt;/font&gt;&lt;/div&gt;" style="shape=parallelogram;perimeter=parallelogramPerimeter;whiteSpace=wrap;html=1;fixedSize=1;" vertex="1" parent="WIyWlLk6GJQsqaUBKTNV-1">
          <mxGeometry x="360" y="800" width="160" height="40" as="geometry" />
        </mxCell>
        <mxCell id="oukyk6c_DSoq8OUK_arh-46" value="&lt;div style=&quot;font-family: &amp;#34;consolas&amp;#34; , &amp;#34;courier new&amp;#34; , monospace ; line-height: 19px&quot;&gt;&lt;font style=&quot;font-size: 12px&quot;&gt;number1-number2&lt;/font&gt;&lt;/div&gt;" style="shape=parallelogram;perimeter=parallelogramPerimeter;whiteSpace=wrap;html=1;fixedSize=1;" vertex="1" parent="WIyWlLk6GJQsqaUBKTNV-1">
          <mxGeometry x="356.5" y="920" width="160" height="40" as="geometry" />
        </mxCell>
        <mxCell id="oukyk6c_DSoq8OUK_arh-48" value="Yes" style="edgeStyle=orthogonalEdgeStyle;rounded=0;orthogonalLoop=1;jettySize=auto;html=1;entryX=0.5;entryY=0;entryDx=0;entryDy=0;" edge="1" parent="WIyWlLk6GJQsqaUBKTNV-1">
          <mxGeometry relative="1" as="geometry">
            <mxPoint x="440.0000000000001" y="920" as="targetPoint" />
            <mxPoint x="520" y="880" as="sourcePoint" />
            <Array as="points">
              <mxPoint x="440" y="880" />
            </Array>
          </mxGeometry>
        </mxCell>
        <mxCell id="oukyk6c_DSoq8OUK_arh-49" value="&lt;div style=&quot;font-family: &amp;#34;consolas&amp;#34; , &amp;#34;courier new&amp;#34; , monospace ; line-height: 19px&quot;&gt;&lt;font style=&quot;font-size: 12px&quot;&gt;number1*number2&lt;/font&gt;&lt;/div&gt;" style="shape=parallelogram;perimeter=parallelogramPerimeter;whiteSpace=wrap;html=1;fixedSize=1;" vertex="1" parent="WIyWlLk6GJQsqaUBKTNV-1">
          <mxGeometry x="356.5" y="1040" width="160" height="40" as="geometry" />
        </mxCell>
        <mxCell id="oukyk6c_DSoq8OUK_arh-50" value="Yes" style="edgeStyle=orthogonalEdgeStyle;rounded=0;orthogonalLoop=1;jettySize=auto;html=1;entryX=0.5;entryY=0;entryDx=0;entryDy=0;" edge="1" parent="WIyWlLk6GJQsqaUBKTNV-1">
          <mxGeometry relative="1" as="geometry">
            <mxPoint x="440.0000000000001" y="1040" as="targetPoint" />
            <mxPoint x="520" y="1000" as="sourcePoint" />
            <Array as="points">
              <mxPoint x="440" y="1000" />
            </Array>
          </mxGeometry>
        </mxCell>
        <mxCell id="oukyk6c_DSoq8OUK_arh-65" style="edgeStyle=orthogonalEdgeStyle;rounded=0;orthogonalLoop=1;jettySize=auto;html=1;" edge="1" parent="WIyWlLk6GJQsqaUBKTNV-1" source="oukyk6c_DSoq8OUK_arh-51">
          <mxGeometry relative="1" as="geometry">
            <mxPoint x="318.5" y="1320" as="targetPoint" />
          </mxGeometry>
        </mxCell>
        <mxCell id="oukyk6c_DSoq8OUK_arh-51" value="&lt;div style=&quot;font-family: &amp;#34;consolas&amp;#34; , &amp;#34;courier new&amp;#34; , monospace ; line-height: 19px&quot;&gt;&lt;font style=&quot;font-size: 12px&quot;&gt;number1+number2&lt;/font&gt;&lt;/div&gt;" style="shape=parallelogram;perimeter=parallelogramPerimeter;whiteSpace=wrap;html=1;fixedSize=1;" vertex="1" parent="WIyWlLk6GJQsqaUBKTNV-1">
          <mxGeometry x="238.5" y="1240" width="160" height="40" as="geometry" />
        </mxCell>
        <mxCell id="oukyk6c_DSoq8OUK_arh-52" value="Yes" style="edgeStyle=orthogonalEdgeStyle;rounded=0;orthogonalLoop=1;jettySize=auto;html=1;entryX=0.5;entryY=0;entryDx=0;entryDy=0;" edge="1" parent="WIyWlLk6GJQsqaUBKTNV-1">
          <mxGeometry relative="1" as="geometry">
            <mxPoint x="440.2500000000001" y="1160" as="targetPoint" />
            <mxPoint x="520.25" y="1120" as="sourcePoint" />
            <Array as="points">
              <mxPoint x="440.25" y="1120" />
            </Array>
          </mxGeometry>
        </mxCell>
        <mxCell id="oukyk6c_DSoq8OUK_arh-59" value="No" style="edgeStyle=orthogonalEdgeStyle;rounded=0;orthogonalLoop=1;jettySize=auto;html=1;exitX=1;exitY=0.5;exitDx=0;exitDy=0;entryX=0.581;entryY=-0.033;entryDx=0;entryDy=0;entryPerimeter=0;" edge="1" parent="WIyWlLk6GJQsqaUBKTNV-1" source="oukyk6c_DSoq8OUK_arh-55" target="oukyk6c_DSoq8OUK_arh-58">
          <mxGeometry relative="1" as="geometry">
            <mxPoint x="520" y="1200.3333333333335" as="targetPoint" />
          </mxGeometry>
        </mxCell>
        <mxCell id="oukyk6c_DSoq8OUK_arh-55" value="if number2 != 0" style="rhombus;whiteSpace=wrap;html=1;" vertex="1" parent="WIyWlLk6GJQsqaUBKTNV-1">
          <mxGeometry x="390" y="1160" width="100" height="80" as="geometry" />
        </mxCell>
        <mxCell id="oukyk6c_DSoq8OUK_arh-56" value="Yes" style="edgeStyle=orthogonalEdgeStyle;rounded=0;orthogonalLoop=1;jettySize=auto;html=1;entryX=0.5;entryY=0;entryDx=0;entryDy=0;" edge="1" parent="WIyWlLk6GJQsqaUBKTNV-1" target="oukyk6c_DSoq8OUK_arh-51">
          <mxGeometry relative="1" as="geometry">
            <mxPoint x="310" y="1230" as="targetPoint" />
            <mxPoint x="390" y="1200" as="sourcePoint" />
            <Array as="points">
              <mxPoint x="320" y="1200" />
              <mxPoint x="320" y="1230" />
              <mxPoint x="319" y="1230" />
            </Array>
          </mxGeometry>
        </mxCell>
        <mxCell id="oukyk6c_DSoq8OUK_arh-60" style="edgeStyle=orthogonalEdgeStyle;rounded=0;orthogonalLoop=1;jettySize=auto;html=1;" edge="1" parent="WIyWlLk6GJQsqaUBKTNV-1" source="oukyk6c_DSoq8OUK_arh-58">
          <mxGeometry relative="1" as="geometry">
            <mxPoint x="440" y="180" as="targetPoint" />
            <Array as="points">
              <mxPoint x="510" y="1320" />
              <mxPoint x="230" y="1320" />
            </Array>
          </mxGeometry>
        </mxCell>
        <mxCell id="oukyk6c_DSoq8OUK_arh-58" value="&lt;div style=&quot;font-family: &amp;#34;consolas&amp;#34; , &amp;#34;courier new&amp;#34; , monospace ; line-height: 19px&quot;&gt;&lt;font style=&quot;font-size: 12px&quot;&gt;Ошибка&lt;/font&gt;&lt;/div&gt;" style="shape=parallelogram;perimeter=parallelogramPerimeter;whiteSpace=wrap;html=1;fixedSize=1;" vertex="1" parent="WIyWlLk6GJQsqaUBKTNV-1">
          <mxGeometry x="470" y="1240" width="80" height="40" as="geometry" />
        </mxCell>
        <mxCell id="oukyk6c_DSoq8OUK_arh-62" style="edgeStyle=orthogonalEdgeStyle;rounded=0;orthogonalLoop=1;jettySize=auto;html=1;" edge="1" parent="WIyWlLk6GJQsqaUBKTNV-1">
          <mxGeometry relative="1" as="geometry">
            <mxPoint x="230" y="860" as="targetPoint" />
            <mxPoint x="440" y="840" as="sourcePoint" />
            <Array as="points">
              <mxPoint x="440" y="860" />
              <mxPoint x="290" y="860" />
            </Array>
          </mxGeometry>
        </mxCell>
        <mxCell id="oukyk6c_DSoq8OUK_arh-63" style="edgeStyle=orthogonalEdgeStyle;rounded=0;orthogonalLoop=1;jettySize=auto;html=1;" edge="1" parent="WIyWlLk6GJQsqaUBKTNV-1">
          <mxGeometry relative="1" as="geometry">
            <mxPoint x="220" y="980" as="targetPoint" />
            <mxPoint x="430" y="960" as="sourcePoint" />
            <Array as="points">
              <mxPoint x="430" y="980" />
              <mxPoint x="280" y="980" />
            </Array>
          </mxGeometry>
        </mxCell>
        <mxCell id="oukyk6c_DSoq8OUK_arh-64" style="edgeStyle=orthogonalEdgeStyle;rounded=0;orthogonalLoop=1;jettySize=auto;html=1;" edge="1" parent="WIyWlLk6GJQsqaUBKTNV-1">
          <mxGeometry relative="1" as="geometry">
            <mxPoint x="230" y="1100" as="targetPoint" />
            <mxPoint x="440" y="1080" as="sourcePoint" />
            <Array as="points">
              <mxPoint x="440" y="1100" />
              <mxPoint x="290" y="1100" />
            </Array>
          </mxGeometry>
        </mxCell>
      </root>
    </mxGraphModel>
  </diagram>
</mxfile>
